<svg xmlns="http://www.w3.org/2000/svg" xmlns:xlink="http://www.w3.org/1999/xlink" viewBox="0 0 403.26 432.54"><defs><style>.cls-1{fill:#fff;}.cls-2{fill:url(#linear-gradient);}.cls-3{fill:url(#linear-gradient-2);}.cls-4{fill:url(#linear-gradient-3);}.cls-5{fill:url(#linear-gradient-4);}</style><linearGradient id="linear-gradient" x1="173.57" y1="141.9" x2="232.95" y2="141.9" gradientUnits="userSpaceOnUse"><stop offset="0" stop-color="#2fb7f1"/><stop offset="1" stop-color="#0075ff"/></linearGradient><linearGradient id="linear-gradient-2" x1="183.22" y1="222.79" x2="223.3" y2="222.79" xlink:href="#linear-gradient"/><linearGradient id="linear-gradient-3" x1="110.19" y1="-5.53" x2="352.59" y2="284.62" xlink:href="#linear-gradient"/><linearGradient id="linear-gradient-4" x1="30.44" y1="367.17" x2="142.06" y2="107.61" xlink:href="#linear-gradient"/></defs><title>R Blue</title><g id="Layer_2" data-name="Layer 2"><g id="Layer_1-2" data-name="Layer 1"><path class="cls-1" d="M233,141.9a29.69,29.69,0,1,0-29.69,29.68A29.69,29.69,0,0,0,233,141.9Z"/><path class="cls-2" d="M233,141.9a29.69,29.69,0,1,0-29.69,29.68A29.69,29.69,0,0,0,233,141.9Z"/><path class="cls-1" d="M203.26,242.83a20,20,0,1,0-20-20A20,20,0,0,0,203.26,242.83Z"/><path class="cls-3" d="M203.26,242.83a20,20,0,1,0-20-20A20,20,0,0,0,203.26,242.83Z"/><path class="cls-4" d="M403.25,423.6c-.55-17.74-2.56-35.25-9.4-52.1-11.5-28.38-28.79-53.69-56.55-73.29-.76-.53-3.47-1.47-.51-3.65,21.19-15.66,37.45-34.49,48.91-56.11,16.15-30.47,21.07-62.27,15-95.26-7.31-39.8-29.42-72.87-64.6-99.92a194.59,194.59,0,0,0-38.83-23C254.11.82,208.39-4.4,160.59,3.6,124.15,9.7,92.39,23.86,65.08,45,57.49,50.85,50,56.82,44.46,64.3c4.4-.68,7.71-3.18,11.45-4.93,29.8-14,60.64-14.65,92.22-5.06a169.17,169.17,0,0,1,37.14,16.35,84.46,84.46,0,0,1,12.27-10.78,10,10,0,0,1,11.54.07c23.75,16.62,69,77.45,64,168.93a40.68,40.68,0,0,0,11.79,31l13.66,13.66A14.6,14.6,0,0,1,302.47,287l-11.71,53.16a14.59,14.59,0,0,1-24.76,7l-19-19.74a2.35,2.35,0,0,0-1.69-.72h-8.54a2.31,2.31,0,0,0-1.45.52c.77,3.7,1.53,7.39,2.32,11.09.06.29.12.57.19.86h0c3.15,29.78,17.46,56.82,35.83,80h0a29.43,29.43,0,0,0,24.64,13.34h96.6a8.45,8.45,0,0,0,8.36-8.85Z"/><path class="cls-5" d="M161.21,326.69a2.34,2.34,0,0,0-1.69.72l-19,19.74a14.59,14.59,0,0,1-24.76-7L104.05,287A14.58,14.58,0,0,1,108,273.54l13.66-13.66A40.54,40.54,0,0,0,133.43,229C129.18,151.48,161,96,185.27,70.66a169.17,169.17,0,0,0-37.14-16.35c-31.58-9.59-62.42-8.93-92.22,5.06-3.74,1.75-7,4.25-11.45,4.93-8,6.71-13.51,14.93-19,23.1A149,149,0,0,0,1.83,147.78c-2.31,14.28-1.77,28.63-1.78,43,0,31.11.18,62.22.17,93.33q0,58.43-.11,116.84a31.58,31.58,0,0,0,31.58,31.62h71.08a31.9,31.9,0,0,0,25.94-12.88l.15-.2c17-23,31.78-50.76,39.77-83.39.08-.27.15-.54.21-.84l1.44-7.9-.53-.64Z"/></g></g></svg>