<svg xmlns="http://www.w3.org/2000/svg" xmlns:xlink="http://www.w3.org/1999/xlink" viewBox="0 0 529.15 102.48"><defs><style>.cls-1{fill:url(#linear-gradient);}.cls-2{fill:url(#linear-gradient-2);}.cls-3{fill:url(#linear-gradient-3);}.cls-4{fill:url(#linear-gradient-4);}.cls-5{fill:url(#linear-gradient-5);}</style><linearGradient id="linear-gradient" x1="564.06" y1="76.34" x2="-66.12" y2="46.62" gradientUnits="userSpaceOnUse"><stop offset="0" stop-color="#2fb7f1"/><stop offset="1" stop-color="#0075ff"/></linearGradient><linearGradient id="linear-gradient-2" x1="564.32" y1="70.95" x2="-65.87" y2="41.24" xlink:href="#linear-gradient"/><linearGradient id="linear-gradient-3" x1="564.6" y1="64.87" x2="-65.58" y2="35.16" xlink:href="#linear-gradient"/><linearGradient id="linear-gradient-4" x1="564.85" y1="59.61" x2="-65.33" y2="29.89" xlink:href="#linear-gradient"/><linearGradient id="linear-gradient-5" x1="565.05" y1="55.35" x2="-65.13" y2="25.64" xlink:href="#linear-gradient"/></defs><title>Radix Blue</title><g id="Layer_2" data-name="Layer 2"><g id="Layer_1-2" data-name="Layer 1"><path class="cls-1" d="M70.29,102.48l-28.9-57h20.2a7.59,7.59,0,0,0,4.6-1.31,12.47,12.47,0,0,0,3.28-3.28,14.31,14.31,0,0,0,1.81-4.6,23.8,23.8,0,0,0,.66-4.77,16.92,16.92,0,0,0-.83-4.92A17.4,17.4,0,0,0,69,21.84a14.86,14.86,0,0,0-3.45-3.61,7.16,7.16,0,0,0-4.43-1.48H17.57v85.73H0V0H63.07A22.84,22.84,0,0,1,73.41,2.46,27.72,27.72,0,0,1,82,9a34.44,34.44,0,0,1,5.92,10.19,35.22,35.22,0,0,1,2.3,12.48A35.68,35.68,0,0,1,88.52,42a33.19,33.19,0,0,1-4.6,9A33.55,33.55,0,0,1,77.19,58a21.28,21.28,0,0,1-8.38,3.78l20.7,40.73Z"/><polygon class="cls-2" points="120.59 102.48 172.05 0 223.07 102.48 148.86 102.48 159.34 87.07 196.89 87.07 172.05 35.91 138.99 102.48 120.59 102.48"/><path class="cls-3" d="M253.49,102.48V0h43a51.59,51.59,0,0,1,20.2,4.11,51,51,0,0,1,27.43,27.42,51.57,51.57,0,0,1,4.1,20,46,46,0,0,1-4.43,20A54.84,54.84,0,0,1,332.16,87.7a55.78,55.78,0,0,1-16.59,10.84,47.86,47.86,0,0,1-18.72,3.94Zm43.19-85.4H271.06V85.57h25.46A30.39,30.39,0,0,0,309,82.94a39.13,39.13,0,0,0,11.17-7.39,36.9,36.9,0,0,0,7.88-10.84,29,29,0,0,0,3-13,33.21,33.21,0,0,0-2.79-13.13,42.61,42.61,0,0,0-7.56-11,36.27,36.27,0,0,0-10.84-7.72,33.22,33.22,0,0,0-13.14-2.79"/><polygon class="cls-4" points="378.67 102.48 378.67 0 396.25 0 396.25 51.24 396.25 102.48 378.67 102.48"/><path class="cls-5" d="M426.66,102.48l25-50.75L426.83,0h19.71l25.29,51.57-25.62,50.91ZM509.28,0H529L503.86,51.73l25.29,50.75H509.6L483.82,51.57Z"/></g></g></svg>