<svg xmlns="http://www.w3.org/2000/svg" xmlns:xlink="http://www.w3.org/1999/xlink" width="483.721" height="236.491" viewBox="0 0 483.721 236.491">
  <defs>
    <clipPath id="clip-path">
      <rect id="Rectangle_3" data-name="Rectangle 3" width="454" height="177" transform="translate(1222 903)" fill="#fff"/>
    </clipPath>
  </defs>
  <g id="Group_1" data-name="Group 1" transform="translate(-1222 -843.509)">
    <path id="Path_2" data-name="Path 2" d="M102.4-419.6v-5.876a12.241,12.241,0,0,1,4.053-9.129c20.809-18.612,24.174-41.465,22.642-50.16a3.091,3.091,0,0,0-2.507-2.507c-8.695-1.532-31.549,1.833-50.161,22.641a12.236,12.236,0,0,1-9.129,4.053H61.423a4.437,4.437,0,0,0-3.74,2.049L48.77-444.574a4.437,4.437,0,0,0,3.823,6.825l8.33-.157a.709.709,0,0,1,.517.208l1.836,1.836a.712.712,0,0,1,0,1.007l-1.017,1.017a1.462,1.462,0,0,0,0,2.066l11.34,11.34a1.462,1.462,0,0,0,2.066,0l1.017-1.017a.712.712,0,0,1,1.007,0l1.835,1.835a.712.712,0,0,1,.209.517l-.157,8.331a4.437,4.437,0,0,0,6.825,3.823l13.951-8.914A4.437,4.437,0,0,0,102.4-419.6ZM88.516-446.689a6.093,6.093,0,0,1,0-8.618,6.093,6.093,0,0,1,8.618,0,6.092,6.092,0,0,1,0,8.617A6.094,6.094,0,0,1,88.516-446.689Zm15.321-15.321a9.027,9.027,0,0,1,0-12.767,9.027,9.027,0,0,1,12.767,0,9.027,9.027,0,0,1,0,12.767A9.027,9.027,0,0,1,103.837-462.01Z" transform="matrix(0.978, -0.208, 0.208, 0.978, 1663.594, 1347.351)" fill="#fff"/>
    <g id="Mask_Group_1" data-name="Mask Group 1" clip-path="url(#clip-path)">
      <path id="Path_34" data-name="Path 34" d="M1644.221,921.353c-52.428,81.682-25.963,158.647-25.963,158.647l65.58,95.058S612.525,1058.681,1090,1080s545.515-164.118,545.515-164.118Z" fill="#fff"/>
    </g>
  </g>
</svg>
